<?xml version="1.0" encoding="UTF-8"?>
<svg version="1.1" xmlns="http://www.w3.org/2000/svg" width="198" height="198">
<path d="M0 0 C2.33708364 0.00849672 4.67170164 -0.02033342 7.00854492 -0.05200195 C33.26515489 -0.17616101 56.01129366 11.22982422 74.5378418 29.44604492 C75.29709961 30.19241211 76.05635742 30.9387793 76.83862305 31.70776367 C86.98556309 42.31035215 94.10189653 55.50147057 98.5378418 69.44604492 C98.80636963 70.27144775 99.07489746 71.09685059 99.3515625 71.94726562 C101.76607961 80.28669685 102.03144031 88.29741377 101.98388672 96.90820312 C101.97539 99.24528677 102.00422014 101.57990477 102.03588867 103.91674805 C102.16327961 130.81912323 90.15475767 153.58163682 71.5378418 172.44604492 C55.39666641 188.61893185 32.28064092 198.79717266 9.44944763 198.99723816 C7.91605757 198.99435222 6.38266504 198.98441443 4.84936523 198.9675293 C2.53872846 198.94605316 0.23119875 198.96747555 -2.0793457 198.99291992 C-28.91572464 199.04504014 -51.64402659 186.9964933 -70.4621582 168.44604492 C-71.19305664 167.72803711 -71.92395508 167.0100293 -72.67700195 166.27026367 C-82.40020884 156.04645604 -89.20691526 142.82257416 -93.4621582 129.44604492 C-93.73068604 128.62064209 -93.99921387 127.79523926 -94.27587891 126.94482422 C-96.69039601 118.60539299 -96.95575672 110.59467608 -96.90820312 101.98388672 C-96.8997064 99.64680308 -96.92853654 97.31218508 -96.96020508 94.9753418 C-97.0876433 68.06298048 -85.07102259 45.3234355 -66.4621582 26.44604492 C-65.74415039 25.71514648 -65.02614258 24.98424805 -64.28637695 24.23120117 C-54.06256932 14.50799429 -40.83868744 7.70128786 -27.4621582 3.44604492 C-26.63675537 3.17751709 -25.81135254 2.90898926 -24.9609375 2.63232422 C-16.62150628 0.21780711 -8.61078936 -0.04755359 0 0 Z " fill="#000000" transform="translate(96.462158203125,-0.446044921875)"/>
<path d="M0 0 C3.3492937 1.21763032 5.93734114 2.51156261 8.671875 4.79296875 C9.33703125 5.34146484 10.0021875 5.88996094 10.6875 6.45507812 C11.368125 7.02677734 12.04875 7.59847656 12.75 8.1875 C14.79561498 9.8862326 16.8421723 11.57922118 18.91821289 13.24072266 C21 15 21 15 22.79858398 16.94287109 C29.79392846 23.84008803 38.48385475 23.2679806 47.74438477 23.2421875 C50.53764876 23.24993111 53.31313534 23.36394468 56.10351562 23.484375 C68.54964102 23.72118365 75.58561898 20.93772887 84.58227539 12.31860352 C85.1455957 11.76086746 85.70891602 11.20313141 86.28930664 10.62849426 C88.97763307 8.06934236 91.90225046 5.90762866 94.875 3.6875 C95.82117188 2.96949219 96.76734375 2.25148437 97.7421875 1.51171875 C100 0 100 0 102 0 C101.93941406 0.69746338 101.87882812 1.39492676 101.81640625 2.11352539 C99.84651496 25.26543041 98.9323821 46.819577 103.125 69.75390625 C103.41793913 71.50239146 103.70978971 73.2510598 104 75 C104.20496094 76.11246094 104.40992188 77.22492188 104.62109375 78.37109375 C103.72854492 82.1489891 101.62575702 83.1460474 98.41088867 85.13232422 C97.63592041 85.58365723 96.86095215 86.03499023 96.0625 86.5 C95.28430908 86.98355957 94.50611816 87.46711914 93.7043457 87.96533203 C90.51773562 89.94061086 87.32094811 91.82988912 84.0078125 93.5859375 C79.17384008 96.27147773 77.43839832 98.49765858 75.75 103.8125 C74.94264566 106.89384365 74.21045667 109.97655612 73.56884766 113.09667969 C71.56114881 122.6897359 69.39298016 129.49924486 61.07470703 135.26757812 C56.97364535 137.78741046 53.39349317 139.46128285 48.5546875 138.921875 C41.85965282 136.50592976 35.59002835 132.08458156 32.30859375 125.71875 C30.8934592 121.6972333 29.64541991 117.66753716 28.5 113.5625 C27.89445697 111.40403209 27.28083109 109.25254689 26.62060547 107.11010742 C26 105 26 105 25.60205078 102.9621582 C24.01110817 96.60071597 19.65644665 94.28191555 14.25390625 91.01367188 C12.58134766 90.0478418 12.58134766 90.0478418 10.875 89.0625 C8.66389396 87.7411674 6.45294749 86.41956775 4.2421875 85.09765625 C3.2610498 84.52539307 2.27991211 83.95312988 1.26904297 83.36352539 C-1 82 -1 82 -2 81 C-1.95868433 74.22422949 -1.1832054 67.58529999 0.14672852 60.95629883 C4.15696074 40.88158968 1.5256487 20.24730591 0 0 Z " fill="#52CCCC" transform="translate(48,30)"/>
<path d="M0 0 C2.87686345 1.33281331 5.2080609 2.83965096 7.64453125 4.86328125 C8.32193359 5.42080078 8.99933594 5.97832031 9.69726562 6.55273438 C10.39529297 7.13345703 11.09332031 7.71417969 11.8125 8.3125 C16.75468362 12.41010388 21.73092969 16.32886997 27 20 C25.50785577 23.7553163 23.45071036 25.43624586 20.2109375 27.78515625 C19.26992187 28.48060547 18.32890625 29.17605469 17.359375 29.89257812 C15.3628227 31.34425981 13.36542033 32.79477305 11.3671875 34.24414062 C10.42875 34.93830078 9.4903125 35.63246094 8.5234375 36.34765625 C7.65638184 36.97679932 6.78932617 37.60594238 5.89599609 38.25415039 C5.27031738 38.83028076 4.64463867 39.40641113 4 40 C3.66818602 43.06547189 3.66818602 43.06547189 5.75 44.97265625 C6.4925 45.66230469 7.235 46.35195312 8 47.0625 C9.36847481 48.33831766 10.71055602 49.64435689 12 51 C12 51.66 12 52.32 12 53 C13.485 52.505 13.485 52.505 15 52 C18.46830282 52.95418102 21.70998642 54.49406446 25 55.9375 C26.37285156 56.48760742 26.37285156 56.48760742 27.7734375 57.04882812 C32.29380642 59.02731804 35.28754003 60.41812077 37.15625 65.15625 C38.07264749 69.33094968 38.19119288 70.43931156 36 74 C34.70257387 75.80914389 33.39582713 77.59839425 32.0234375 79.3515625 C30.73626846 81.10140537 30.73626846 81.10140537 31 84 C29.50542612 85.99276518 27.87705584 87.8174343 26.21484375 89.671875 C24.19023825 93.55182637 25.38653444 96.94135358 26.5949707 100.99658203 C27.50228846 103.78132662 28.45720823 106.5463535 29.44726562 109.30273438 C31.18250927 114.46913969 31.18250927 114.46913969 30.14453125 117.48828125 C29.76683594 117.98714844 29.38914063 118.48601562 29 119 C28.67386719 117.865625 28.34773438 116.73125 28.01171875 115.5625 C27.5704756 114.04161934 27.1290601 112.52078867 26.6875 111 C26.36749023 109.88431641 26.36749023 109.88431641 26.04101562 108.74609375 C25.60036049 107.23339702 25.14261303 105.72558706 24.66894531 104.22290039 C24 102 24 102 23.58886719 99.93139648 C22.00398915 93.58645666 17.64143818 91.27283625 12.25390625 88.01367188 C10.58134766 87.0478418 10.58134766 87.0478418 8.875 86.0625 C6.66389396 84.7411674 4.45294749 83.41956775 2.2421875 82.09765625 C1.2610498 81.52539307 0.27991211 80.95312988 -0.73095703 80.36352539 C-3 79 -3 79 -4 78 C-3.95347085 70.36921981 -2.90040168 62.91616895 -1.5 55.4375 C1.91317007 37.05148055 1.41691513 18.57170905 0 0 Z " fill="#56D6D6" transform="translate(50,33)"/>
<path d="M0 0 C4.6889493 0.55619669 8.19924267 1.88182673 12.375 4.0625 C13.43460938 4.61035156 14.49421875 5.15820312 15.5859375 5.72265625 C16.38257812 6.14417969 17.17921875 6.56570312 18 7 C16.90081688 18.80651982 15.6056894 30.56203103 13.96557617 42.30688477 C13.84029541 43.22397217 13.71501465 44.14105957 13.5859375 45.0859375 C13.4729834 45.8907959 13.3600293 46.6956543 13.24365234 47.52490234 C12.96437825 50.36185706 12.96125788 53.15116272 13 56 C13.55178412 51.87408122 14.10311735 47.74810249 14.65405273 43.62207031 C14.8411066 42.22166357 15.02827859 40.8212726 15.21557617 39.42089844 C16.64753698 28.71558302 16.64753698 28.71558302 18 18 C18.66 18 19.32 18 20 18 C20.99 26.25 21.98 34.5 23 43 C22.33088513 30.95593239 21.26589458 18.99527289 20 7 C22.24307028 5.79749842 24.4928791 4.6130838 26.75 3.4375 C27.38421875 3.09525391 28.0184375 2.75300781 28.671875 2.40039062 C33.45095438 -0.06382218 33.45095438 -0.06382218 36.453125 0.28515625 C36.96359375 0.52105469 37.4740625 0.75695312 38 1 C35.69 1.66 33.38 2.32 31 3 C29.2505382 9.40215071 29.2505382 9.40215071 29 16 C29.66 16 30.32 16 31 16 C32.45920435 18.91840871 32.35563803 21.93295794 32.53515625 25.140625 C32.57813339 25.8592572 32.62111053 26.5778894 32.66539001 27.31829834 C32.75572407 28.84814096 32.84384019 30.37811589 32.92993164 31.90820312 C33.05964898 34.19963724 33.19818685 36.49040582 33.33789062 38.78125 C33.8739221 47.86825985 34.12307431 56.89432428 34 66 C33.01 66 32.02 66 31 66 C31.66 66.33 32.32 66.66 33 67 C31.62407747 70.32514612 30.24369708 72.33181293 27 74 C24.375 73.25 24.375 73.25 22 72 C21.34 71.67 20.68 71.34 20 71 C20 70.34 20 69.68 20 69 C19.34 69 18.68 69 18 69 C18 69.66 18 70.32 18 71 C15.75 72.75 15.75 72.75 13 74 C10.9375 73.375 10.9375 73.375 9 72 C8.2575 71.505 7.515 71.01 6.75 70.5 C6.1725 70.005 5.595 69.51 5 69 C5 68.34 5 67.68 5 67 C9.625 64.875 9.625 64.875 13 66 C12.34 65.67 11.68 65.34 11 65 C10.10650648 61.7112406 9.86607407 58.56471625 9.82641602 55.16894531 C9.81292618 54.2373761 9.79943634 53.30580688 9.78553772 52.3460083 C9.76988014 50.85215607 9.76988014 50.85215607 9.75390625 49.328125 C9.72096109 47.19791266 9.68774956 45.06770443 9.65429688 42.9375 C9.60698458 39.59573236 9.56254687 36.25398057 9.52319336 32.91210938 C9.48323949 29.67560679 9.43174883 26.43943934 9.37890625 23.203125 C9.3704921 22.21532043 9.36207794 21.22751587 9.35340881 20.20977783 C9.24742596 14.19687819 8.49754737 8.82841392 7 3 C5.824375 2.814375 5.824375 2.814375 4.625 2.625 C2 2 2 2 0 0 Z " fill="#4FC6C6" transform="translate(80,90)"/>
<path d="M0 0 C5.14809742 1.56637848 8.70499875 4.78985217 12.75 8.1875 C14.79561498 9.8862326 16.8421723 11.57922118 18.91821289 13.24072266 C21 15 21 15 22.79858398 16.94287109 C29.79392846 23.84008803 38.48385475 23.2679806 47.74438477 23.2421875 C50.53764876 23.24993111 53.31313534 23.36394468 56.10351562 23.484375 C68.54964102 23.72118365 75.58561898 20.93772887 84.58227539 12.31860352 C85.1455957 11.76086746 85.70891602 11.20313141 86.28930664 10.62849426 C88.97763307 8.06934236 91.90225046 5.90762866 94.875 3.6875 C95.82117188 2.96949219 96.76734375 2.25148437 97.7421875 1.51171875 C100 0 100 0 102 0 C101.93941406 0.69746338 101.87882812 1.39492676 101.81640625 2.11352539 C100.75469769 14.59166357 99.80413649 27.03292013 99.8125 39.5625 C99.8115332 40.92290405 99.8115332 40.92290405 99.81054688 42.31079102 C99.85379054 47.60568249 100.24353608 52.73904412 100.9831543 57.98413086 C100.98871338 58.64936768 100.99427246 59.31460449 101 60 C100.01 60.99 100.01 60.99 99 62 C98.86722656 61.08476563 98.73445313 60.16953125 98.59765625 59.2265625 C98.33275391 57.44378906 98.33275391 57.44378906 98.0625 55.625 C97.88847656 54.44164062 97.71445313 53.25828125 97.53515625 52.0390625 C97.16537214 49.09297619 97.16537214 49.09297619 96 47 C94.02 47.99 94.02 47.99 92 49 C92.99 47.35 93.98 45.7 95 44 C94.27296875 43.45472656 93.5459375 42.90945312 92.796875 42.34765625 C85.53125 36.8984375 78.265625 31.44921875 71 26 C70.95029053 26.58773193 70.90058105 27.17546387 70.84936523 27.78100586 C70.2402796 34.44186209 69.24974133 40.98191701 68.0625 47.5625 C67.89298828 48.55830078 67.72347656 49.55410156 67.54882812 50.58007812 C67.29456055 51.99643555 67.29456055 51.99643555 67.03515625 53.44140625 C66.80904663 54.72059937 66.80904663 54.72059937 66.57836914 56.02563477 C66.38750732 56.67717529 66.19664551 57.32871582 66 58 C65.01 58.495 65.01 58.495 64 59 C64.74594719 51.59549258 65.86329465 44.28104372 67.0625 36.9375 C67.24876953 35.78572266 67.43503906 34.63394531 67.62695312 33.44726562 C68.08266741 30.63118505 68.54039376 27.81544753 69 25 C63.89451896 24.9946367 58.79129785 25.02865009 53.6862793 25.09765625 C51.95328431 25.11571668 50.22014652 25.12340297 48.48706055 25.12011719 C34.60488391 25.0111307 34.60488391 25.0111307 23 32 C21.54896571 33.08194449 20.08917193 34.15223507 18.62109375 35.2109375 C17.22467411 36.26312347 15.83012935 37.31780246 14.4375 38.375 C13.3537207 39.19291016 13.3537207 39.19291016 12.24804688 40.02734375 C10.49700465 41.34932265 8.74825115 42.67433225 7 44 C7.93274109 45.12894876 8.87140122 46.25300876 9.8125 47.375 C10.33457031 48.00148437 10.85664062 48.62796875 11.39453125 49.2734375 C15.35203358 53.52943758 19.9298263 53.97688202 25.3828125 55.12109375 C26.24648437 55.41113281 27.11015625 55.70117188 28 56 C28.33 56.99 28.66 57.98 29 59 C31.48106504 59.96930498 33.98470384 60.65474477 36.5546875 61.3515625 C40.39834945 63.94265729 41.0049401 67.59644873 42 72 C42.37110406 75.87473984 42.35170409 79.70811613 42.29296875 83.59765625 C42.28872391 84.67252792 42.28447906 85.7473996 42.28010559 86.85484314 C42.26343339 90.25765998 42.22580223 93.65986488 42.1875 97.0625 C42.17243837 99.38215285 42.15875256 101.70181507 42.14648438 104.02148438 C42.11356752 109.6811952 42.06348361 115.34055386 42 121 C41.67 121 41.34 121 41 121 C41 106.15 41 91.3 41 76 C40.34 76 39.68 76 39 76 C38.34 85.24 37.68 94.48 37 104 C36.67 104 36.34 104 36 104 C35.67 97.4 35.34 90.8 35 84 C34.01 84 33.02 84 32 84 C32.52851562 83.38253906 33.05703125 82.76507813 33.6015625 82.12890625 C34.26929688 81.28199219 34.93703125 80.43507813 35.625 79.5625 C36.29789063 78.73878906 36.97078125 77.91507812 37.6640625 77.06640625 C39.31351389 73.28038478 39.31136604 71.07500015 38.22021484 67.12915039 C35.72392858 62.77338558 31.01381762 61.57428063 26.5 59.9375 C25.52417969 59.54884766 24.54835938 59.16019531 23.54296875 58.75976562 C18.90369701 56.76398101 18.90369701 56.76398101 14 56 C12.14000715 54.0324413 10.46609802 51.94444402 8.75390625 49.84765625 C7.03994919 47.75201831 7.03994919 47.75201831 4 47 C4 44.03 4 41.06 4 38 C4.66 39.32 5.32 40.64 6 42 C6.52432617 41.59160889 7.04865234 41.18321777 7.58886719 40.76245117 C9.97562575 38.9037669 12.36280858 37.04562829 14.75 35.1875 C15.575 34.54490234 16.4 33.90230469 17.25 33.24023438 C18.04921875 32.61826172 18.8484375 31.99628906 19.671875 31.35546875 C20.4050293 30.78465576 21.13818359 30.21384277 21.89355469 29.62573242 C23.32593956 28.52023278 24.7867833 27.4508591 26.27050781 26.4152832 C26.84124023 25.94823975 27.41197266 25.48119629 28 25 C28 24.34 28 23.68 28 23 C26.1384971 21.41574221 24.27428429 19.95125904 22.3125 18.5 C21.12746104 17.60696073 19.94256974 16.71372549 18.7578125 15.8203125 C18.14196289 15.35915039 17.52611328 14.89798828 16.89160156 14.42285156 C13.80332544 12.09986844 10.74676674 9.73596978 7.6875 7.375 C6.58739023 6.52845003 5.48714377 5.68207765 4.38671875 4.8359375 C3.59910156 4.23007812 2.81148437 3.62421875 2 3 C2.144375 3.94617187 2.28875 4.89234375 2.4375 5.8671875 C3.93341558 16.29859885 4.21931922 26.47267757 4 37 C3.67 37 3.34 37 3 37 C1.83961822 24.67495512 0.7315183 12.35880918 0 0 Z " fill="#5DE8E8" transform="translate(48,30)"/>
<path d="M0 0 C12.21 0 24.42 0 37 0 C37 7.25159283 36.26391956 13.97581073 35.1875 21.125 C35.04119141 22.38699219 34.89488281 23.64898437 34.74414062 24.94921875 C33.33939492 33.93006759 33.33939492 33.93006759 29.52197266 36.97949219 C24.02921932 39.6000067 19.4608873 40.68866286 13.45166016 39.49291992 C10.36833062 38.3386737 8.40667028 37.27536927 6 35 C3.86172729 29.57037461 3.13703275 24.07135959 2.375 18.3125 C2.13557373 16.76173699 1.89212108 15.21158997 1.64453125 13.66210938 C0 3.15306836 0 3.15306836 0 0 Z " fill="#000101" transform="translate(80,55)"/>
<path d="M0 0 C0.66 0 1.32 0 2 0 C2.33 14.52 2.66 29.04 3 44 C3.66 44.33 4.32 44.66 5 45 C4.67 46.32 4.34 47.64 4 49 C5.32 49.66 6.64 50.32 8 51 C5 51 5 51 3 50.4375 C0.80883384 49.77947007 0.80883384 49.77947007 -2 51 C0.24958334 53.58333229 0.24958334 53.58333229 3 56 C6.11257569 56 8.10765685 55.82638376 11 55 C11 54.34 11 53.68 11 53 C11.66 53 12.32 53 13 53 C13 53.66 13 54.32 13 55 C13.66 55.33 14.32 55.66 15 56 C16.125 58.0625 16.125 58.0625 17 60 C15.31870536 61.68129464 13.37392646 61.41013388 11.0625 61.5625 C4.81237608 61.53802171 1.61213792 59.12888716 -3.00390625 55.140625 C-5.9778026 51.9513976 -7.02712637 50.28610886 -6.93359375 45.8515625 C-7.03250497 40.11471148 -9.05704817 35.21754653 -10.95507812 29.8515625 C-13.62448948 21.96266682 -13.62448948 21.96266682 -12 18 C-10.1875 15.10546875 -10.1875 15.10546875 -8 12.1875 C-7.278125 11.21167969 -6.55625 10.23585938 -5.8125 9.23046875 C-4.9153125 8.12638672 -4.9153125 8.12638672 -4 7 C-3.67 7 -3.34 7 -3 7 C-2.67 10.96 -2.34 14.92 -2 19 C-1.93941406 17.79601562 -1.87882812 16.59203125 -1.81640625 15.3515625 C-1.73200268 13.77602923 -1.64735459 12.20050904 -1.5625 10.625 C-1.50352539 9.43390625 -1.50352539 9.43390625 -1.44335938 8.21875 C-1.11328125 2.2265625 -1.11328125 2.2265625 0 0 Z " fill="#4EC4C4" transform="translate(87,106)"/>
<path d="M0 0 C3.16926862 1.58463431 5.47659512 3.01045945 8.22265625 5.15234375 C9.00833984 5.76400391 9.79402344 6.37566406 10.60351562 7.00585938 C11.41498047 7.64330078 12.22644531 8.28074219 13.0625 8.9375 C13.87783203 9.57107422 14.69316406 10.20464844 15.53320312 10.85742188 C22.12362475 16.00737337 22.12362475 16.00737337 25 19 C18.89104426 26.81642784 12.49383178 28.95330414 3 31 C0.03 31.66 -2.94 32.32 -6 33 C-4.02 22.11 -2.04 11.22 0 0 Z " fill="#020505" transform="translate(119,56)"/>
<path d="M0 0 C0.84223216 4.3733353 1.67221195 8.74890966 2.5 13.125 C2.73847656 14.3625 2.97695312 15.6 3.22265625 16.875 C3.44824219 18.07382813 3.67382812 19.27265625 3.90625 20.5078125 C4.11572266 21.60754395 4.32519531 22.70727539 4.54101562 23.84033203 C4.99180676 26.94359741 5.08249503 29.86931374 5 33 C-18.14049587 28.2892562 -18.14049587 28.2892562 -25 18 C-22.12773012 15.74649757 -19.25170171 13.49784134 -16.375 11.25 C-15.56675781 10.61578125 -14.75851563 9.9815625 -13.92578125 9.328125 C-1.97412109 0 -1.97412109 0 0 0 Z " fill="#020404" transform="translate(79,56)"/>
<path d="M0 0 C-0.56130289 13.0576778 -1.58978773 26.0068792 -3 39 C-6.60170693 37.70535904 -9.35297958 36.17742107 -12.35546875 33.8125 C-13.14244141 33.19632813 -13.92941406 32.58015625 -14.74023438 31.9453125 C-15.95163086 30.98238281 -15.95163086 30.98238281 -17.1875 30 C-18.00669922 29.35804687 -18.82589844 28.71609375 -19.66992188 28.0546875 C-25.65293195 23.34706805 -25.65293195 23.34706805 -28 21 C-24.07549984 17.80540128 -20.14901058 14.61329141 -16.21875 11.42578125 C-13.73324099 9.40991784 -11.25263573 7.38861457 -8.78125 5.35546875 C-7.9046875 4.64003906 -7.028125 3.92460938 -6.125 3.1875 C-5.36445313 2.56230469 -4.60390625 1.93710937 -3.8203125 1.29296875 C-2 0 -2 0 0 0 Z " fill="#020505" transform="translate(148,33)"/>
<path d="M0 0 C2.87686345 1.33281331 5.2080609 2.83965096 7.64453125 4.86328125 C8.32193359 5.42080078 8.99933594 5.97832031 9.69726562 6.55273438 C10.39529297 7.13345703 11.09332031 7.71417969 11.8125 8.3125 C16.75468362 12.41010388 21.73092969 16.32886997 27 20 C25.50484666 23.73710435 23.43357217 25.49205568 20.24609375 27.890625 C19.30958984 28.59960938 18.37308594 29.30859375 17.40820312 30.0390625 C16.42787109 30.76867187 15.44753906 31.49828125 14.4375 32.25 C12.96120117 33.36761719 12.96120117 33.36761719 11.45507812 34.5078125 C4.15730884 40 4.15730884 40 3 40 C2.56862177 35.42884403 2.14152493 30.85731492 1.71826172 26.28540039 C1.57390892 24.73255821 1.42841965 23.17982122 1.28173828 21.62719727 C1.07019555 19.38585168 0.86284421 17.14415024 0.65625 14.90234375 C0.55781799 13.87378517 0.55781799 13.87378517 0.45739746 12.82444763 C0.06719123 8.535614 -0.05874274 4.30535339 0 0 Z " fill="#020505" transform="translate(50,33)"/>
<path d="M0 0 C-0.59850402 2.98965642 -1.48912049 4.99778498 -3.28515625 7.453125 C-3.95708008 8.38125 -3.95708008 8.38125 -4.64257812 9.328125 C-5.11115234 9.96234375 -5.57972656 10.5965625 -6.0625 11.25 C-6.53494141 11.8996875 -7.00738281 12.549375 -7.49414062 13.21875 C-8.65723529 14.81653662 -9.82788601 16.40881803 -11 18 C-16.13481976 16.05083212 -20.62685529 13.39903472 -25.3125 10.5625 C-26.14845703 10.07201172 -26.98441406 9.58152344 -27.84570312 9.07617188 C-28.63525391 8.59857422 -29.42480469 8.12097656 -30.23828125 7.62890625 C-30.96055908 7.19650635 -31.68283691 6.76410645 -32.42700195 6.31860352 C-32.94609131 5.88346436 -33.46518066 5.4483252 -34 5 C-34 4.01 -34 3.02 -34 2 C-21.08586268 -5.11334716 -13.01976343 -7.94030415 0 0 Z " fill="#020505" transform="translate(84,107)"/>
<path d="M0 0 C0 0.99 0 1.98 0 3 C-1.57299805 4.31860352 -1.57299805 4.31860352 -3.76171875 5.62890625 C-4.55126953 6.10650391 -5.34082031 6.58410156 -6.15429688 7.07617188 C-6.99025391 7.56666016 -7.82621094 8.05714844 -8.6875 8.5625 C-9.50412109 9.05685547 -10.32074219 9.55121094 -11.16210938 10.06054688 C-15.03691849 12.37915735 -18.76874265 14.3938227 -23 16 C-24.84214217 13.5687312 -26.67378239 11.13068302 -28.5 8.6875 C-29.02464844 7.99720703 -29.54929687 7.30691406 -30.08984375 6.59570312 C-30.58613281 5.92861328 -31.08242187 5.26152344 -31.59375 4.57421875 C-32.05458984 3.96151123 -32.51542969 3.34880371 -32.99023438 2.7175293 C-34 1 -34 1 -34 -2 C-20.62044623 -9.22745989 -13.08305201 -6.08557327 0 0 Z " fill="#010404" transform="translate(148,109)"/>
<path d="M0 0 C2.06633909 3.09950864 2.47881065 4.76054287 3.0703125 8.3671875 C3.24433594 9.41777344 3.41835937 10.46835938 3.59765625 11.55078125 C3.77167969 12.64777344 3.94570312 13.74476562 4.125 14.875 C4.30675781 15.96425781 4.48851562 17.05351563 4.67578125 18.17578125 C5.43474097 22.8379624 6.11084967 27.26575051 6 32 C-0.93998648 29.83836487 -7.43117569 27.1063786 -14 24 C-10.9843225 14.13050999 -7.77171236 6.98580886 0 0 Z " fill="#020707" transform="translate(144,76)"/>
<path d="M0 0 C5.94232546 4.88410311 9.72100156 8.87308313 12.75 16.0625 C13.19859375 17.10535156 13.6471875 18.14820313 14.109375 19.22265625 C15 22 15 22 14 25 C12.35766602 25.9831543 12.35766602 25.9831543 10.25390625 26.82421875 C9.49916016 27.13037109 8.74441406 27.43652344 7.96679688 27.75195312 C6.77666992 28.21504883 6.77666992 28.21504883 5.5625 28.6875 C4.77294922 29.00783203 3.98339844 29.32816406 3.16992188 29.65820312 C-2.6870669 32 -2.6870669 32 -5 32 C-4.55717468 21.10649708 -2.27000497 10.63226791 0 0 Z " fill="#020606" transform="translate(53,76)"/>
<path d="M0 0 C-0.06058594 0.69746338 -0.12117188 1.39492676 -0.18359375 2.11352539 C-1.24530231 14.59166357 -2.19586351 27.03292013 -2.1875 39.5625 C-2.1884668 40.92290405 -2.1884668 40.92290405 -2.18945312 42.31079102 C-2.14620946 47.60568249 -1.75646392 52.73904412 -1.0168457 57.98413086 C-1.01128662 58.64936768 -1.00572754 59.31460449 -1 60 C-1.99 60.99 -1.99 60.99 -3 62 C-3.13277344 61.08476563 -3.26554687 60.16953125 -3.40234375 59.2265625 C-3.66724609 57.44378906 -3.66724609 57.44378906 -3.9375 55.625 C-4.11152344 54.44164062 -4.28554687 53.25828125 -4.46484375 52.0390625 C-4.83462786 49.09297619 -4.83462786 49.09297619 -6 47 C-7.32 47.66 -8.64 48.32 -10 49 C-9.01 47.35 -8.02 45.7 -7 44 C-7.72703125 43.45472656 -8.4540625 42.90945312 -9.203125 42.34765625 C-16.46875 36.8984375 -23.734375 31.44921875 -31 26 C-31.04970947 26.58773193 -31.09941895 27.17546387 -31.15063477 27.78100586 C-31.7597204 34.44186209 -32.75025867 40.98191701 -33.9375 47.5625 C-34.10701172 48.55830078 -34.27652344 49.55410156 -34.45117188 50.58007812 C-34.70543945 51.99643555 -34.70543945 51.99643555 -34.96484375 53.44140625 C-35.19095337 54.72059937 -35.19095337 54.72059937 -35.42163086 56.02563477 C-35.61249268 56.67717529 -35.80335449 57.32871582 -36 58 C-36.99 58.495 -36.99 58.495 -38 59 C-37.23147823 51.43612785 -36.11352947 43.94767448 -34.9375 36.4375 C-34.298125 32.333125 -33.65875 28.22875 -33 24 C-45.54 24 -58.08 24 -71 24 C-71 23.67 -71 23.34 -71 23 C-69.84177734 23.03778564 -68.68355469 23.07557129 -67.49023438 23.11450195 C-43.63977285 25.05427992 -43.63977285 25.05427992 -22.00048828 17.73388672 C-19.66430152 15.49962893 -17.50942341 13.19357546 -15.46923828 10.68603516 C-13.0383781 7.89648374 -10.11720425 5.83588578 -7.125 3.6875 C-6.17882812 2.96949219 -5.23265625 2.25148437 -4.2578125 1.51171875 C-2 0 -2 0 0 0 Z M-9.8125 7.875 C-16.34516163 13.52008684 -23.10960488 18.80119124 -30 24 C-25.8415408 28.31308825 -21.19204182 31.71270959 -16.375 35.25 C-15.50359375 35.8996875 -14.6321875 36.549375 -13.734375 37.21875 C-12.90164062 37.83234375 -12.06890625 38.4459375 -11.2109375 39.078125 C-10.45087402 39.63918945 -9.69081055 40.20025391 -8.90771484 40.77832031 C-7.09685324 42.17976203 -7.09685324 42.17976203 -5 42 C-4.57056363 37.0888926 -4.14337735 32.17759658 -3.71826172 27.26611328 C-3.57337048 25.59581229 -3.42786792 23.9255642 -3.28173828 22.25537109 C-3.07162754 19.85267617 -2.86372644 17.44979865 -2.65625 15.046875 C-2.59062866 14.30193787 -2.52500732 13.55700073 -2.45739746 12.78948975 C-2.17582339 9.50587526 -2 6.29929615 -2 3 C-5.34309051 3 -7.40194785 5.75648671 -9.8125 7.875 Z " fill="#4BBBBB" transform="translate(150,30)"/>
<path d="M0 0 C4.6889493 0.55619669 8.19924267 1.88182673 12.375 4.0625 C13.43460938 4.61035156 14.49421875 5.15820312 15.5859375 5.72265625 C16.38257812 6.14417969 17.17921875 6.56570312 18 7 C16.95822638 18.52804754 15.69566565 30.0279452 14.26208496 41.51364136 C14.08731618 42.92158009 13.91552336 44.32989141 13.7467041 45.73855591 C13.5063541 47.73560587 13.25342777 49.73112996 13 51.7265625 C12.855625 52.88752441 12.71125 54.04848633 12.5625 55.24462891 C12 58 12 58 10 60 C9.98786972 59.12795677 9.98786972 59.12795677 9.97549438 58.23829651 C9.88903058 52.15417654 9.78951183 46.07036683 9.68261719 39.98657227 C9.64447777 37.72002396 9.60959943 35.45341823 9.578125 33.18676758 C9.5321466 29.91727254 9.47420734 26.64816775 9.4140625 23.37890625 C9.40251129 22.37541641 9.39096008 21.37192657 9.37905884 20.33802795 C9.25383735 14.28598372 8.50825274 8.86630935 7 3 C5.824375 2.814375 5.824375 2.814375 4.625 2.625 C2 2 2 2 0 0 Z " fill="#020505" transform="translate(80,90)"/>
<path d="M0 0 C-2.31 0.66 -4.62 1.32 -7 2 C-8.95271757 8.57757497 -9.33739263 14.66000463 -9.4140625 21.5 C-9.43342865 22.57628662 -9.4527948 23.65257324 -9.4727478 24.76147461 C-9.53217541 28.17423765 -9.57878126 31.58703509 -9.625 35 C-9.66321367 37.32423286 -9.70226734 39.64845207 -9.7421875 41.97265625 C-9.83784642 47.64831568 -9.92300005 53.32405839 -10 59 C-12.36069539 56.63930461 -12.37657384 55.77218144 -12.79370117 52.5378418 C-12.97850288 51.15081306 -12.97850288 51.15081306 -13.16703796 49.73576355 C-13.3531237 48.23267387 -13.3531237 48.23267387 -13.54296875 46.69921875 C-13.74204582 45.15642998 -13.74204582 45.15642998 -13.94514465 43.58247375 C-14.22406484 41.40325434 -14.49865901 39.22347759 -14.76928711 37.04321289 C-15.18469108 33.71003858 -15.61770004 30.37949046 -16.05273438 27.04882812 C-16.32137742 24.93242657 -16.58898939 22.81589383 -16.85546875 20.69921875 C-16.9855986 19.70323166 -17.11572845 18.70724457 -17.24980164 17.68107605 C-17.3635463 16.74693375 -17.47729095 15.81279144 -17.59448242 14.8503418 C-17.74864876 13.62362007 -17.74864876 13.62362007 -17.90592957 12.37211609 C-18.01195014 9.6986608 -17.77645148 7.56262312 -17 5 C-14.19921875 3.1640625 -14.19921875 3.1640625 -10.6875 1.625 C-8.96080078 0.83996094 -8.96080078 0.83996094 -7.19921875 0.0390625 C-4.11142738 -0.96380991 -2.92841112 -1.22920961 0 0 Z " fill="#020505" transform="translate(118,91)"/>
<path d="M0 0 C3.45720305 1.28573296 6.88538004 2.63630582 10.3125 4 C11.77719727 4.54333984 11.77719727 4.54333984 13.27148438 5.09765625 C20.21963222 7.91511826 20.21963222 7.91511826 22.40771484 10.95703125 C23.76931044 14.19542077 24.28647089 16.11855109 23.1875 19.5 C22.795625 19.995 22.40375 20.49 22 21 C19.80470936 20.29810435 17.6211724 19.57693408 15.4453125 18.81640625 C12.81891918 17.89916824 12.81891918 17.89916824 9.3125 17.125 C3.90848034 13.6582704 2.14293522 7.89503425 0 2 C0 1.34 0 0.68 0 0 Z " fill="#030707" transform="translate(64,85)"/>
<path d="M0 0 C1 2 1 2 0.27734375 4.828125 C-2.12530335 10.96433158 -4.21748941 15.26388855 -10.23608398 18.15332031 C-17.97676843 21.3668499 -17.97676843 21.3668499 -21.4296875 20.12890625 C-21.94789062 19.75636719 -22.46609375 19.38382813 -23 19 C-23.10906689 15.56439312 -22.66189005 13.02993867 -21 10 C-16.59443093 6.9922968 -11.93759209 5.02540972 -7 3 C-5.67998551 2.43724521 -4.36093133 1.87223119 -3.04296875 1.3046875 C-2.03878906 0.87414062 -1.03460938 0.44359375 0 0 Z " fill="#030707" transform="translate(133,85)"/>
<path d="M0 0 C0.66 0 1.32 0 2 0 C2.57530687 4.42840931 3.14476017 8.85752181 3.70898438 13.28735352 C3.90141766 14.79178786 4.09540223 16.29602467 4.29101562 17.80004883 C4.57317349 19.97165672 4.84960035 22.14393219 5.125 24.31640625 C5.29257813 25.62037354 5.46015625 26.92434082 5.6328125 28.26782227 C5.98758208 31.8737814 6.06556683 35.3794816 6 39 C2.7 39 -0.6 39 -4 39 C-3.32193011 25.92961823 -1.62509702 12.97937322 0 0 Z " fill="#030707" transform="translate(98,108)"/>
<path d="M0 0 C2.80692746 2.64653161 5.45266639 5.36913504 7.875 8.375 C8.30554688 8.89835937 8.73609375 9.42171875 9.1796875 9.9609375 C11.49978306 15.72803217 7.78379714 23.30436605 5.9375 28.9375 C5.65583984 29.81212891 5.37417969 30.68675781 5.08398438 31.58789062 C4.39434445 33.72694327 3.69959171 35.86418579 3 38 C2.67 38 2.34 38 2 38 C1.22199951 32.98549263 0.72293488 28.00558088 0.4375 22.9375 C0.3950415 22.20668213 0.35258301 21.47586426 0.30883789 20.72290039 C-0.06319988 13.81138182 -0.0987181 6.92123545 0 0 Z " fill="#020606" transform="translate(114,113)"/>
<path d="M0 0 C5.14871743 1.56656712 8.70392422 4.79079441 12.75 8.1875 C14.17259175 9.36398938 15.59576535 10.53977557 17.01953125 11.71484375 C18.04361084 12.56344971 18.04361084 12.56344971 19.08837891 13.42919922 C22.17232112 15.96330959 25.32863178 18.39993784 28.49609375 20.828125 C30 22 30 22 31 23 C33.80976518 23.16017166 36.59773596 23.25950534 39.41015625 23.31640625 C40.25219101 23.33718735 41.09422577 23.35796844 41.96177673 23.37937927 C44.66193179 23.44496812 47.36218717 23.50380276 50.0625 23.5625 C51.88868241 23.60567637 53.71485454 23.64929036 55.54101562 23.69335938 C60.02723992 23.80065894 64.5135655 23.90189966 69 24 C69 24.33 69 24.66 69 25 C67.9262915 24.99887207 66.85258301 24.99774414 65.74633789 24.99658203 C61.72579376 25.00027992 57.70643132 25.04331457 53.6862793 25.09765625 C51.95328431 25.11571668 50.22014652 25.12340297 48.48706055 25.12011719 C34.5984151 24.99084302 34.5984151 24.99084302 23 32 C21.76647654 32.93427951 20.52580574 33.85921597 19.27734375 34.7734375 C18.16169721 35.63757991 17.04836181 36.50471536 15.9375 37.375 C15.06834961 38.04982422 15.06834961 38.04982422 14.18164062 38.73828125 C12.78563065 39.82278487 11.39248677 40.91097634 10 42 C9.34 41.34 8.68 40.68 8 40 C8.57032959 39.59160889 9.14065918 39.18321777 9.72827148 38.76245117 C12.30362615 36.91180094 14.87058849 35.04984109 17.4375 33.1875 C18.33533203 32.54490234 19.23316406 31.90230469 20.15820312 31.24023438 C21.01220703 30.61826172 21.86621094 29.99628906 22.74609375 29.35546875 C23.53685303 28.78465576 24.3276123 28.21384277 25.14233398 27.62573242 C27.26650765 26.04322249 27.26650765 26.04322249 28 23 C27.21238281 22.39414062 26.42476562 21.78828125 25.61328125 21.1640625 C17.7421875 15.109375 9.87109375 9.0546875 2 3 C2.144375 3.94617187 2.28875 4.89234375 2.4375 5.8671875 C3.93341558 16.29859885 4.21931922 26.47267757 4 37 C3.67 37 3.34 37 3 37 C1.83961822 24.67495512 0.7315183 12.35880918 0 0 Z " fill="#5BE3E3" transform="translate(48,30)"/>
<path d="M0 0 C0.33 0 0.66 0 1 0 C0.859247 4.27101628 0.71145337 8.54176247 0.5625 12.8125 C0.50352539 14.6059082 0.50352539 14.6059082 0.44335938 16.43554688 C0.18767372 23.65374956 -0.25059072 30.81578561 -1 38 C-3.60526542 34.09210187 -4.76743325 30.07565626 -6.1875 25.625 C-6.47302734 24.77421875 -6.75855469 23.9234375 -7.05273438 23.046875 C-9.63235661 14.98790919 -9.63235661 14.98790919 -8 11 C-6.1875 8.10546875 -6.1875 8.10546875 -4 5.1875 C-3.278125 4.21167969 -2.55625 3.23585938 -1.8125 2.23046875 C-1.214375 1.49441406 -0.61625 0.75835937 0 0 Z " fill="#010303" transform="translate(83,113)"/>
<path d="M0 0 C0.33 0.99 0.66 1.98 1 3 C1.66 3 2.32 3 3 3 C3.33 2.01 3.66 1.02 4 0 C4.51287503 3.74835263 5.00783138 7.49887701 5.5 11.25 C5.64308594 12.29414062 5.78617188 13.33828125 5.93359375 14.4140625 C6.8716474 21.65047636 7.1767031 28.7060889 7 36 C2.53242961 27.66220087 2.60658003 16.28908271 3 7 C2.34 7 1.68 7 1 7 C0.96261719 8.05574219 0.92523438 9.11148438 0.88671875 10.19921875 C0.3779475 22.26909271 -1.11497708 34.07275246 -3 46 C-3.66 45.67 -4.32 45.34 -5 45 C-4.35117514 35.00549754 -3.21567031 25.11548307 -1.9375 15.1875 C-1.74905713 13.70511519 -1.56090446 12.22269347 -1.37304688 10.74023438 C-0.91869669 7.159726 -0.46046555 3.5797277 0 0 Z " fill="#50C8C8" transform="translate(97,101)"/>
<path d="M0 0 C0.99 0.495 0.99 0.495 2 1 C2.29040375 5.58544431 2.57493201 10.17120601 2.85449219 14.75732422 C2.94996284 16.3108047 3.04691801 17.86419482 3.14550781 19.41748047 C3.7713683 29.29713529 4.1430452 39.09610649 4 49 C2.68 48.34 1.36 47.68 0 47 C0 31.49 0 15.98 0 0 Z " fill="#020707" transform="translate(110,107)"/>
<path d="M0 0 C0.33 0 0.66 0 1 0 C1 15.51 1 31.02 1 47 C-0.32 47.66 -1.64 48.32 -3 49 C-3.13365834 39.12017374 -2.79999768 29.33051246 -2.20043945 19.47241211 C-2.05995586 17.14535739 -1.9290987 14.81788094 -1.79882812 12.49023438 C-1.71150387 11.00777903 -1.62363483 9.52535565 -1.53515625 8.04296875 C-1.49656998 7.3483403 -1.4579837 6.65371185 -1.41822815 5.93803406 C-1.11487701 1.11487701 -1.11487701 1.11487701 0 0 Z " fill="#020707" transform="translate(87,107)"/>
<path d="M0 0 C0.66 0.33 1.32 0.66 2 1 C2.57836914 3.17724609 2.57836914 3.17724609 3.03515625 6.0234375 C3.28942383 7.55484375 3.28942383 7.55484375 3.54882812 9.1171875 C3.8030957 10.72980469 3.8030957 10.72980469 4.0625 12.375 C4.4056202 14.48729389 4.75059048 16.59928831 5.09765625 18.7109375 C5.24726807 19.65243652 5.39687988 20.59393555 5.55102539 21.56396484 C5.96497585 24.12665838 5.96497585 24.12665838 7 27 C7.03954234 29.33299825 7.04401732 31.66708189 7 34 C9.97 34.99 12.94 35.98 16 37 C15.67 37.66 15.34 38.32 15 39 C12.167589 38.07781968 9.371371 37.15636674 6.625 36 C3.14138308 34.67290784 -0.37303245 33.86063637 -4 33 C-3.34 32.34 -2.68 31.68 -2 31 C1.125 31.375 1.125 31.375 4 32 C3.28872698 25.06681444 2.24230007 18.25688041 1.01757812 11.3984375 C0.35101481 7.55010153 -0.18051973 3.9243419 0 0 Z " fill="#54D2D2" transform="translate(79,56)"/>
<path d="M0 0 C-0.30969262 4.31270635 -0.62326474 8.62512245 -0.9375 12.9375 C-1.02451172 14.14986328 -1.11152344 15.36222656 -1.20117188 16.61132812 C-1.67550459 23.09387526 -2.22719641 29.54604567 -3 36 C-3.33 36 -3.66 36 -4 36 C-4.33611321 11.76250293 -4.33611321 11.76250293 -2 3 C-2.94101563 3.74765625 -3.88203125 4.4953125 -4.8515625 5.265625 C-6.10928044 6.26053621 -7.36709827 7.25532117 -8.625 8.25 C-9.24246094 8.74113281 -9.85992187 9.23226562 -10.49609375 9.73828125 C-14.22613117 12.68304763 -18.00811445 15.4206278 -22 18 C-22.33 17.34 -22.66 16.68 -23 16 C-19.21908531 13.08362373 -15.43457067 10.17204319 -11.64599609 7.265625 C-10.23592435 6.1814049 -8.83038942 5.09128889 -7.42578125 4 C-6.72839844 3.46375 -6.03101563 2.9275 -5.3125 2.375 C-4.71050781 1.90835937 -4.10851562 1.44171875 -3.48828125 0.9609375 C-2 0 -2 0 0 0 Z " fill="#58DDDD" transform="translate(150,30)"/>
<path d="M0 0 C0.2475 0.598125 0.495 1.19625 0.75 1.8125 C1.87128608 4.12206449 1.87128608 4.12206449 4.0625 5.5 C6 7 6 7 6.75 9 C7 11 7 11 7 14 C6.34 13.34 5.68 12.68 5 12 C4.67 13.65 4.34 15.3 4 17 C3.67 17 3.34 17 3 17 C2.67 13.37 2.34 9.74 2 6 C1.34 6 0.68 6 0 6 C0 20.52 0 35.04 0 50 C-0.33 50 -0.66 50 -1 50 C-1.02526838 43.03996553 -1.04283222 36.0799428 -1.05493164 29.11987305 C-1.05997341 26.75007688 -1.06680665 24.38028385 -1.07543945 22.01049805 C-1.0875119 18.61245961 -1.09322971 15.21446215 -1.09765625 11.81640625 C-1.10281754 10.74975235 -1.10797882 9.68309845 -1.11329651 8.5841217 C-1.11337204 7.60318039 -1.11344757 6.62223907 -1.11352539 5.61157227 C-1.115746 4.74331314 -1.11796661 3.87505402 -1.12025452 2.98048401 C-1 1 -1 1 0 0 Z " fill="#66FFFF" transform="translate(109,100)"/>
<path d="M0 0 C2.625 0.9375 2.625 0.9375 5 2 C3.62407747 5.32514612 2.24369708 7.33181293 -1 9 C-3.625 8.25 -3.625 8.25 -6 7 C-6.66 6.67 -7.32 6.34 -8 6 C-8 5.01 -8 4.02 -8 3 C-7.05125 2.690625 -6.1025 2.38125 -5.125 2.0625 C-2.13919592 1.12605258 -2.13919592 1.12605258 0 0 Z " fill="#081414" transform="translate(108,155)"/>
<path d="M0 0 C0.89332031 0.30164063 1.78664063 0.60328125 2.70703125 0.9140625 C3.60808594 1.21054688 4.50914063 1.50703125 5.4375 1.8125 C6.46810547 2.17214844 6.46810547 2.17214844 7.51953125 2.5390625 C7.51953125 3.5290625 7.51953125 4.5190625 7.51953125 5.5390625 C5.26953125 7.3515625 5.26953125 7.3515625 2.51953125 8.5390625 C0.45703125 7.9140625 0.45703125 7.9140625 -1.48046875 6.5390625 C-2.22296875 6.0440625 -2.96546875 5.5490625 -3.73046875 5.0390625 C-4.30796875 4.5440625 -4.88546875 4.0490625 -5.48046875 3.5390625 C-5.48046875 2.8790625 -5.48046875 2.2190625 -5.48046875 1.5390625 C-2.48046875 -0.4609375 -2.48046875 -0.4609375 0 0 Z " fill="#081313" transform="translate(90.48046875,155.4609375)"/>
<path d="M0 0 C0.66 0 1.32 0 2 0 C2.3671875 2.16796875 2.3671875 2.16796875 2 5 C0.06303393 7.07965792 -1.63174012 8.63387016 -3.875 10.3125 C-4.45983154 10.75964355 -5.04466309 11.20678711 -5.6472168 11.66748047 C-10.17013208 14.89857385 -13.64075096 15.97797684 -19.26953125 15.3515625 C-19.84058594 15.23554688 -20.41164063 15.11953125 -21 15 C-21.33 14.34 -21.66 13.68 -22 13 C-18.7 13 -15.4 13 -12 13 C-11.67 12.34 -11.34 11.68 -11 11 C-11.99 10.67 -12.98 10.34 -14 10 C-13.34 9.67 -12.68 9.34 -12 9 C-11.401875 9.226875 -10.80375 9.45375 -10.1875 9.6875 C-7.77050196 10.28232804 -7.77050196 10.28232804 -5.3125 8.1875 C-2.96652351 6.21842035 -2.96652351 6.21842035 -2 4 C-2.99 3.67 -3.98 3.34 -5 3 C-4.67 2.34 -4.34 1.68 -4 1 C-2.68 1.66 -1.36 2.32 0 3 C0 2.01 0 1.02 0 0 Z " fill="#58DCDC" transform="translate(115,153)"/>
<path d="M0 0 C-1.03640625 0.40992187 -2.0728125 0.81984375 -3.140625 1.2421875 C-4.51045339 1.7863659 -5.88024302 2.33064187 -7.25 2.875 C-7.93191406 3.14441406 -8.61382812 3.41382812 -9.31640625 3.69140625 C-11.21627475 4.44766459 -13.10841921 5.22324449 -15 6 C-15.804375 6.3196875 -16.60875 6.639375 -17.4375 6.96875 C-19.45170501 8.03429783 -19.45170501 8.03429783 -19.75 11.625 C-19.8325 12.73875 -19.915 13.8525 -20 15 C-20.66 15 -21.32 15 -22 15 C-22.103125 13.906875 -22.20625 12.81375 -22.3125 11.6875 C-22.97307727 8.14440371 -23.2027092 7.06756277 -26 5 C-25.071875 5.103125 -24.14375 5.20625 -23.1875 5.3125 C-18.44760171 5.35119305 -14.71881948 3.2606869 -10.55078125 1.19140625 C-6.59190094 -0.65768792 -4.22243222 -1.35721036 0 0 Z " fill="#5BE4E4" transform="translate(120,89)"/>
<path d="M0 0 C2.381829 3.5727435 2.14112568 4.63877727 1.75 8.8125 C1.58951172 10.52953125 1.58951172 10.52953125 1.42578125 12.28125 C0.74725062 18.20749918 -0.08963163 24.10470191 -1 30 C-1.66 29.67 -2.32 29.34 -3 29 C-2.367277 19.27604657 -1.27665042 9.65544349 0 0 Z " fill="#4CBDBD" transform="translate(95,117)"/>
<path d="M0 0 C0.33 0 0.66 0 1 0 C1.41277905 23.99516389 1.41277905 23.99516389 -1 33 C-3 31 -3 31 -3.01391602 29.00830078 C-2.90748779 28.20376465 -2.80105957 27.39922852 -2.69140625 26.5703125 C-2.58199707 25.67473633 -2.47258789 24.77916016 -2.35986328 23.85644531 C-2.2411084 22.91381836 -2.12235352 21.97119141 -2 21 C-1.81490903 19.14388561 -1.63651191 17.28709142 -1.46484375 15.4296875 C-1.37783203 14.51445313 -1.29082031 13.59921875 -1.20117188 12.65625 C-1.11416016 11.7384375 -1.02714844 10.820625 -0.9375 9.875 C-0.84662109 8.91851562 -0.75574219 7.96203125 -0.66210938 6.9765625 C-0.44118687 4.6510624 -0.22048675 2.32554144 0 0 Z " fill="#42A5A5" transform="translate(52,59)"/>
<path d="M0 0 C2.07709155 3.35548962 2.10068393 5.32666069 1.390625 9.16796875 C1.21273437 10.14314453 1.03484375 11.11832031 0.8515625 12.12304688 C0.65304688 13.13431641 0.45453125 14.14558594 0.25 15.1875 C0.06695312 16.21037109 -0.11609375 17.23324219 -0.3046875 18.28710938 C-1.3585511 23.87926585 -1.3585511 23.87926585 -2 26 C-2.66 26.33 -3.32 26.66 -4 27 C-3.35714676 20.76494772 -2.49994065 14.6138894 -1.4375 8.4375 C-1.29892578 7.61958984 -1.16035156 6.80167969 -1.01757812 5.95898438 C-0.6806501 3.97227085 -0.34065416 1.98607801 0 0 Z " fill="#4CBFBF" transform="translate(116,62)"/>
<path d="M0 0 C0.33 1.32 0.66 2.64 1 4 C-1.7049197 5.7760894 -4.414528 7.54489778 -7.125 9.3125 C-7.88554687 9.81201172 -8.64609375 10.31152344 -9.4296875 10.82617188 C-13.52394493 13.49096874 -17.57434116 15.92856543 -22 18 C-20.82518996 14.47556987 -20.11416941 14.16261202 -17.03515625 12.30078125 C-16.23529297 11.81416016 -15.43542969 11.32753906 -14.61132812 10.82617188 C-13.77021484 10.32666016 -12.92910156 9.82714844 -12.0625 9.3125 C-11.22525391 8.80138672 -10.38800781 8.29027344 -9.52539062 7.76367188 C-3.27940379 4 -3.27940379 4 -1 4 C-0.67 2.68 -0.34 1.36 0 0 Z " fill="#58DCDC" transform="translate(151,107)"/>
<path d="M0 0 C0 1.32 0 2.64 0 4 C-0.77085938 4.27972656 -1.54171875 4.55945313 -2.3359375 4.84765625 C-8.02186493 6.85036755 -8.02186493 6.85036755 -12.17578125 10.890625 C-12.79250155 12.9984348 -12.79250155 12.9984348 -13 16 C-14.66932487 13.4960127 -15.06504505 12.39027029 -14.5625 9.375 C-13 7 -13 7 -9.375 5.6875 C-8.26125 5.460625 -7.1475 5.23375 -6 5 C-6 3.68 -6 2.36 -6 1 C-3.92446352 0.4465236 -2.15634036 0 0 0 Z " fill="#4FC6C6" transform="translate(124,86)"/>
<path d="M0 0 C0.33 0 0.66 0 1 0 C1 2.31 1 4.62 1 7 C3.97 7.99 6.94 8.98 10 10 C9.67 10.66 9.34 11.32 9 12 C6.167589 11.07781968 3.371371 10.15636674 0.625 9 C-2.85861692 7.67290784 -6.37303245 6.86063637 -10 6 C-9.34 5.34 -8.68 4.68 -8 4 C-4.875 4.375 -4.875 4.375 -2 5 C-1.34 3.35 -0.68 1.7 0 0 Z " fill="#4DC0C0" transform="translate(85,83)"/>
<path d="M0 0 C0.66 0.33 1.32 0.66 2 1 C1.21625 1.9075 0.4325 2.815 -0.375 3.75 C-2.30052496 6.05190236 -3.82205741 8.21577207 -5 11 C-5.33 9.68 -5.66 8.36 -6 7 C-10.455 8.485 -10.455 8.485 -15 10 C-15 9.01 -15 8.02 -15 7 C-14.16855469 6.74605469 -13.33710937 6.49210937 -12.48046875 6.23046875 C-11.39378906 5.88628906 -10.30710938 5.54210937 -9.1875 5.1875 C-8.10855469 4.85105469 -7.02960938 4.51460938 -5.91796875 4.16796875 C-3.18086707 3.07239525 -1.83507509 2.24716212 0 0 Z " fill="#5FEEEE" transform="translate(139,79)"/>
<path d="M0 0 C0.66 1.32 1.32 2.64 2 4 C2.99 4 3.98 4 5 4 C4.01 5.485 4.01 5.485 3 7 C6.99584449 11.31503917 10.46544279 14.7051836 16 17 C13.92446352 17.5534764 12.15634036 18 10 18 C8.14000715 16.0324413 6.46609802 13.94444402 4.75390625 11.84765625 C3.03994919 9.75201831 3.03994919 9.75201831 0 9 C0 6.03 0 3.06 0 0 Z " fill="#61F4F4" transform="translate(52,68)"/>
<path d="M0 0 C1.48206495 0.254496 2.96068615 0.52911762 4.4375 0.8125 C5.67306641 1.03873047 5.67306641 1.03873047 6.93359375 1.26953125 C7.95646484 1.63111328 7.95646484 1.63111328 9 2 C9.33 2.99 9.66 3.98 10 5 C12.09138456 6.23950042 12.09138456 6.23950042 14.5625 7.1875 C15.38878906 7.53167969 16.21507813 7.87585938 17.06640625 8.23046875 C18.02353516 8.61138672 18.02353516 8.61138672 19 9 C15.62073443 10.12642186 15.27071722 9.96344705 12.20703125 8.56640625 C11.49482422 8.24736328 10.78261719 7.92832031 10.04882812 7.59960938 C9.31083984 7.25736328 8.57285156 6.91511719 7.8125 6.5625 C7.06291016 6.22412109 6.31332031 5.88574219 5.54101562 5.53710938 C3.69007302 4.7000589 1.84450334 3.85114596 0 3 C0 2.01 0 1.02 0 0 Z " fill="#5BE4E4" transform="translate(67,84)"/>
<path d="M0 0 C2.31444537 3.47166806 3.4891147 7.00339698 4.75 10.9375 C5.11931641 12.01161133 5.11931641 12.01161133 5.49609375 13.10742188 C7.19937404 18.41909654 7.19937404 18.41909654 6.140625 21.50390625 C5.76421875 21.99761719 5.3878125 22.49132812 5 23 C4.18649517 20.25029364 3.37415946 17.50025107 2.5625 14.75 C2.33240234 13.97269531 2.10230469 13.19539062 1.86523438 12.39453125 C1.53168945 11.26337891 1.53168945 11.26337891 1.19140625 10.109375 C0.98717041 9.41811523 0.78293457 8.72685547 0.57250977 8.01464844 C0.38358154 7.34981445 0.19465332 6.68498047 0 6 C-0.21019775 5.29649414 -0.42039551 4.59298828 -0.63696289 3.86816406 C-1 2 -1 2 0 0 Z " fill="#50C8C8" transform="translate(74,129)"/>
<path d="M0 0 C0.2475 0.598125 0.495 1.19625 0.75 1.8125 C1.87128608 4.12206449 1.87128608 4.12206449 4.0625 5.5 C6 7 6 7 6.75 9 C7 11 7 11 7 14 C6.34 13.34 5.68 12.68 5 12 C4.67 13.65 4.34 15.3 4 17 C3.67 17 3.34 17 3 17 C2.67 13.37 2.34 9.74 2 6 C1.01 6 0.02 6 -1 6 C-1.042721 4.33388095 -1.04063832 2.66617115 -1 1 C-0.67 0.67 -0.34 0.34 0 0 Z " fill="#5CE8E8" transform="translate(109,100)"/>
<path d="M0 0 C-0.33 0.99 -0.66 1.98 -1 3 C-3.64 3 -6.28 3 -9 3 C-9.33 2.01 -9.66 1.02 -10 0 C-6.22996568 -2.61002376 -4.07631429 -1.66758312 0 0 Z " fill="#0D1F1F" transform="translate(104,164)"/>
<path d="M0 0 C2.64 0 5.28 0 8 0 C7.34 1.65 6.68 3.3 6 5 C4.68 5 3.36 5 2 5 C1.34 3.35 0.68 1.7 0 0 Z " fill="#050E0E" transform="translate(95,149)"/>
<path d="M0 0 C0.928125 0.165 1.85625 0.33 2.8125 0.5 C5.95621353 1.07748388 5.95621353 1.07748388 9 1 C4.42071882 5.82029598 4.42071882 5.82029598 0.375 6.33203125 C-2.10024766 6.31445137 -4.53484453 6.21923319 -7 6 C-7.33 5.34 -7.66 4.68 -8 4 C-4.7 4 -1.4 4 2 4 C2.33 3.34 2.66 2.68 3 2 C2.01 1.67 1.02 1.34 0 1 C0 0.67 0 0.34 0 0 Z " fill="#5FEFEF" transform="translate(101,162)"/>
<path d="M0 0 C3.89006773 1.38780795 6.96558708 3.2152227 10.3125 5.625 C11.19550781 6.25664063 12.07851562 6.88828125 12.98828125 7.5390625 C13.65214844 8.02117187 14.31601563 8.50328125 15 9 C14.34 9.66 13.68 10.32 13 11 C11.01712504 9.54648985 9.03870613 8.08752713 7.0625 6.625 C6.49853516 6.2125 5.93457031 5.8 5.35351562 5.375 C1.11328125 2.2265625 1.11328125 2.2265625 0 0 Z " fill="#53D0D0" transform="translate(130,63)"/>
<path d="M0 0 C0.66 0 1.32 0 2 0 C5 4.38461538 5 4.38461538 5 7 C3.02 6.34 1.04 5.68 -1 5 C-0.67 3.35 -0.34 1.7 0 0 Z " fill="#0B1C1C" transform="translate(92,150)"/>
<path d="M0 0 C0.66 0 1.32 0 2 0 C2.33 1.65 2.66 3.3 3 5 C1.02 5.66 -0.96 6.32 -3 7 C-1.125 2.25 -1.125 2.25 0 0 Z " fill="#091717" transform="translate(104,150)"/>
<path d="M0 0 C0.33 0 0.66 0 1 0 C1.16682272 4.92127034 1.24828052 8.50343896 -1 13 C-1.33 13 -1.66 13 -2 13 C-1.85769192 11.58297487 -1.71099254 10.1663904 -1.5625 8.75 C-1.48128906 7.96109375 -1.40007812 7.1721875 -1.31640625 6.359375 C-1.02365007 4.17635361 -0.57935581 2.1226818 0 0 Z " fill="#53D0D0" transform="translate(114,76)"/>
<path d="M0 0 C3.28788824 3.11016455 5.83735988 6.01618925 8 10 C7.01 10 6.02 10 5 10 C3.61328125 8.3203125 3.61328125 8.3203125 2.3125 6.125 C1.87550781 5.40570313 1.43851562 4.68640625 0.98828125 3.9453125 C0 2 0 2 0 0 Z " fill="#55D6D6" transform="translate(116,113)"/>
<path d="M0 0 C0.33 0 0.66 0 1 0 C1.22162329 1.62324086 1.42689803 3.248721 1.625 4.875 C1.74101562 5.77992187 1.85703125 6.68484375 1.9765625 7.6171875 C1.98429688 8.40351562 1.99203125 9.18984375 2 10 C1.34 10.66 0.68 11.32 0 12 C-0.19573608 10.56359829 -0.38127816 9.12580496 -0.5625 7.6875 C-0.66691406 6.88699219 -0.77132812 6.08648437 -0.87890625 5.26171875 C-1 3 -1 3 0 0 Z " fill="#46AEAE" transform="translate(147,80)"/>
<path d="M0 0 C4.43458973 1.3937282 6.87378374 3.60582235 10 7 C6.433255 7 5.89456323 6.36308045 3.3125 4.0625 C2.68988281 3.51722656 2.06726563 2.97195312 1.42578125 2.41015625 C0.95527344 1.94480469 0.48476563 1.47945312 0 1 C0 0.67 0 0.34 0 0 Z " fill="#54D2D2" transform="translate(62,41)"/>
<path d="M0 0 C3.63 0.33 7.26 0.66 11 1 C11 1.33 11 1.66 11 2 C8.03 2 5.06 2 2 2 C2 2.66 2 3.32 2 4 C1.01 4 0.02 4 -1 4 C-0.67 2.68 -0.34 1.36 0 0 Z " fill="#63F7F7" transform="translate(92,146)"/>
</svg>
